<svg width="1440" height="700" viewBox="0 0 1440 743" fill="none" xmlns="http://www.w3.org/2000/svg">
<path d="M469.96 0.98203C245.82 -3.21849 -79.7416 166.383 -79.7416 166.383V511.4C-79.7416 511.4 248.63 369.573 469.96 373.135C678.006 376.483 776.449 509.381 984.513 511.4C1200.38 513.496 1519.74 373.135 1519.74 373.135V0.98203C1519.74 0.98203 1203.27 168.854 984.513 166.383C773.454 164 680.995 4.93696 469.96 0.98203Z" fill="#E6F4F0"/>
<path d="M470.218 106.244C246.078 102.043 -79.4831 271.645 -79.4831 271.645V616.662C-79.4831 616.662 248.888 474.835 470.218 478.397C678.265 481.745 776.707 614.643 984.771 616.662C1200.64 618.757 1520 478.397 1520 478.397V106.244C1520 106.244 1203.53 274.116 984.771 271.645C773.713 269.261 681.253 110.199 470.218 106.244Z" fill="#D9EFE8"/>
<path d="M469.701 232.362C245.562 228.162 -80 397.764 -80 397.764V742.781C-80 742.781 248.372 600.954 469.701 604.516C677.748 607.864 776.191 740.761 984.255 742.781C1200.13 744.876 1519.48 604.516 1519.48 604.516V232.362C1519.48 232.362 1203.01 400.235 984.255 397.764C773.196 395.38 680.736 236.317 469.701 232.362Z" fill="#B0DDD0"/>
</svg>
