<svg width="68" height="62" viewBox="0 0 68 62" fill="none" xmlns="http://www.w3.org/2000/svg">
<path d="M35.9238 56.082L35.7627 57H32.4961L32.6572 56.082H35.9238ZM34.0049 49.8906L32.7744 57H31.6855L32.916 49.8906H34.0049ZM36.0459 52.8838L35.8896 53.7871H33.0527L33.2139 52.8838H36.0459ZM36.9639 49.8906L36.8027 50.8135H33.5703L33.7314 49.8906H36.9639Z" fill="#E6F4F0"/>
<path d="M36.6152 58.8857L37.4648 53.8906H38.5488L37.6992 58.8809C37.6406 59.2975 37.5104 59.6768 37.3086 60.0186C37.11 60.3571 36.8447 60.6257 36.5127 60.8242C36.1839 61.0195 35.7981 61.1123 35.3554 61.1025C34.9322 61.0928 34.5856 60.9951 34.3154 60.8096C34.0452 60.624 33.8483 60.3734 33.7246 60.0576C33.6009 59.7419 33.552 59.3838 33.5781 58.9834H34.6669C34.6539 59.1755 34.6637 59.3626 34.6962 59.5449C34.7321 59.724 34.8069 59.8737 34.9209 59.9941C35.0348 60.1146 35.2041 60.1781 35.4287 60.1846C35.6728 60.1943 35.8763 60.1341 36.039 60.0039C36.205 59.8737 36.3336 59.7077 36.4248 59.5059C36.5192 59.304 36.5826 59.0973 36.6152 58.8857Z" fill="#E6F4F0"/>
<path fill-rule="evenodd" clip-rule="evenodd" d="M34 3.5C16.8346 3.5 3 16.9753 3 33.5C3 37.3615 3.75312 41.0497 5.12432 44.4372L2.3435 45.5628C0.830538 41.8251 0 37.7552 0 33.5C0 15.2308 15.2669 0.5 34 0.5C52.7332 0.5 68 15.2308 68 33.5C68 37.7552 67.1695 41.8251 65.6565 45.5628L62.8757 44.4372C64.2469 41.0497 65 37.3615 65 33.5C65 16.9753 51.1654 3.5 34 3.5Z" fill="#E6F4F0"/>
<rect width="6" height="1" rx="0.5" transform="matrix(1 0 0 -1 12.5 35.1665)" fill="#E6F4F0"/>
<rect width="6" height="1" rx="0.5" transform="matrix(1 0 0 -1 12.5 35.1665)" fill="#E6F4F0"/>
<path fill-rule="evenodd" clip-rule="evenodd" d="M27.1666 43.833C26.9825 43.833 26.8333 43.9822 26.8333 44.1663C26.8333 44.3504 26.9825 44.4997 27.1666 44.4997C27.3507 44.4997 27.4999 44.3504 27.4999 44.1663C27.4999 43.9822 27.3507 43.833 27.1666 43.833ZM24.8333 44.1663C24.8333 42.8777 25.8779 41.833 27.1666 41.833C28.4552 41.833 29.4999 42.8777 29.4999 44.1663C29.4999 45.455 28.4552 46.4997 27.1666 46.4997C25.8779 46.4997 24.8333 45.455 24.8333 44.1663Z" fill="#E6F4F0"/>
<path fill-rule="evenodd" clip-rule="evenodd" d="M41.8333 43.833C41.6492 43.833 41.5 43.9822 41.5 44.1663C41.5 44.3504 41.6492 44.4997 41.8333 44.4997C42.0174 44.4997 42.1667 44.3504 42.1667 44.1663C42.1667 43.9822 42.0174 43.833 41.8333 43.833ZM39.5 44.1663C39.5 42.8777 40.5447 41.833 41.8333 41.833C43.122 41.833 44.1667 42.8777 44.1667 44.1663C44.1667 45.455 43.122 46.4997 41.8333 46.4997C40.5447 46.4997 39.5 45.455 39.5 44.1663Z" fill="#E6F4F0"/>
<path fill-rule="evenodd" clip-rule="evenodd" d="M18.7002 21C18.7002 20.4477 19.1479 20 19.7002 20H22.3669C22.8384 20 23.2459 20.3295 23.3447 20.7906L24.6032 26.6667H38.0001C38.5524 26.6667 39.0001 27.1144 39.0001 27.6667C39.0001 28.219 38.5524 28.6667 38.0001 28.6667H25.0315L26.8913 37.3502C26.8913 37.3501 26.8913 37.3504 26.8913 37.3502C26.9727 37.7292 27.1836 38.0682 27.4877 38.3085C27.7919 38.5488 28.1704 38.6755 28.558 38.6669L28.5802 38.6667L41.6186 38.6667C41.6183 38.6667 41.6189 38.6667 41.6186 38.6667C41.9975 38.6658 42.3659 38.5359 42.6611 38.2982C42.9542 38.0622 43.1588 37.734 43.2416 37.3671L43.5194 35.9715C43.6271 35.4298 44.1536 35.0781 44.6953 35.1859C45.237 35.2937 45.5887 35.8202 45.4809 36.3618L45.201 37.7685L45.1968 37.7883C45.0174 38.6033 44.5654 39.3327 43.9154 39.856C43.2654 40.3794 42.4563 40.6653 41.6218 40.6667L41.6202 40.6667H28.5904C27.7419 40.6828 26.914 40.404 26.2479 39.8778C25.5787 39.3491 25.1147 38.6037 24.9358 37.7698L22.8277 27.9269C22.8189 27.8941 22.8117 27.8607 22.8063 27.8267L21.5584 22H19.7002C19.1479 22 18.7002 21.5523 18.7002 21Z" fill="#E6F4F0"/>
<g clip-path="url(#clip0_11_350)">
<path fill-rule="evenodd" clip-rule="evenodd" d="M43.5 23.1665C44.0523 23.1665 44.5 23.6142 44.5 24.1665V34.1665C44.5 34.7188 44.0523 35.1665 43.5 35.1665C42.9477 35.1665 42.5 34.7188 42.5 34.1665V24.1665C42.5 23.6142 42.9477 23.1665 43.5 23.1665Z" fill="#E6F4F0"/>
<path fill-rule="evenodd" clip-rule="evenodd" d="M40.3055 25.472C40.8212 24.9562 41.5207 24.6665 42.25 24.6665H46C46.5523 24.6665 47 25.1142 47 25.6665C47 26.2188 46.5523 26.6665 46 26.6665H42.25C42.0511 26.6665 41.8603 26.7455 41.7197 26.8862C41.579 27.0268 41.5 27.2176 41.5 27.4165C41.5 27.6154 41.579 27.8062 41.7197 27.9468C41.8603 28.0875 42.0511 28.1665 42.25 28.1665H44.75C45.4793 28.1665 46.1788 28.4562 46.6945 28.972C47.2103 29.4877 47.5 30.1872 47.5 30.9165C47.5 31.6458 47.2103 32.3453 46.6945 32.861C46.1788 33.3768 45.4793 33.6665 44.75 33.6665H40.5C39.9477 33.6665 39.5 33.2188 39.5 32.6665C39.5 32.1142 39.9477 31.6665 40.5 31.6665H44.75C44.9489 31.6665 45.1397 31.5875 45.2803 31.4468C45.421 31.3062 45.5 31.1154 45.5 30.9165C45.5 30.7176 45.421 30.5268 45.2803 30.3862C45.1397 30.2455 44.9489 30.1665 44.75 30.1665H42.25C41.5207 30.1665 40.8212 29.8768 40.3055 29.361C39.7897 28.8453 39.5 28.1458 39.5 27.4165C39.5 26.6872 39.7897 25.9877 40.3055 25.472Z" fill="#E6F4F0"/>
</g>
<rect width="6" height="1" rx="0.5" transform="matrix(1 0 0 -1 16.5 32.1665)" fill="#E6F4F0"/>
<rect width="4" height="1" rx="0.5" transform="matrix(1 0 0 -1 17.5 38.1665)" fill="#E6F4F0"/>
<defs>
<clipPath id="clip0_11_350">
<rect width="12" height="12" fill="white" transform="translate(37.5 23.1665)"/>
</clipPath>
</defs>
</svg>
