<svg width="402" height="336" viewBox="0 0 402 336" fill="none" xmlns="http://www.w3.org/2000/svg">
<g clip-path="url(#clip0_7_35)">
<path d="M165.642 79.3496H163.817V29.3473C163.817 25.5468 163.068 21.7836 161.614 18.2724C160.16 14.7612 158.028 11.5709 155.34 8.88354C152.653 6.19621 149.463 4.0645 145.952 2.61013C142.44 1.15576 138.677 0.407215 134.877 0.407227H28.9401C25.1396 0.407215 21.3764 1.15576 17.8652 2.61013C14.354 4.0645 11.1637 6.19621 8.47635 8.88354C5.78901 11.5709 3.65729 14.7612 2.20292 18.2724C0.748544 21.7836 -5.94498e-06 25.5468 0 29.3473V303.664C-3.56698e-06 307.465 0.74855 311.228 2.20293 314.739C3.6573 318.25 5.78902 321.441 8.47635 324.128C11.1637 326.815 14.354 328.947 17.8652 330.401C21.3764 331.856 25.1396 332.604 28.9401 332.604H134.877C138.677 332.604 142.44 331.856 145.952 330.401C149.463 328.947 152.653 326.815 155.34 324.128C158.028 321.441 160.16 318.25 161.614 314.739C163.068 311.228 163.817 307.465 163.817 303.664V114.942H165.642V79.3496Z" fill="#E6E6E6"/>
<path d="M136.045 7.93652H122.216C122.852 9.49561 123.095 11.1872 122.923 12.8622C122.751 14.5372 122.17 16.1442 121.231 17.5417C120.292 18.9392 119.023 20.0843 117.537 20.8761C116.051 21.6679 114.394 22.0821 112.71 22.0823H52.02C50.3362 22.0822 48.6782 21.6679 47.1922 20.8761C45.7062 20.0843 44.4378 18.9392 43.4986 17.5417C42.5594 16.1442 41.9783 14.5372 41.8065 12.8622C41.6347 11.1872 41.8774 9.49561 42.5133 7.93652H29.5977C26.7596 7.93652 23.9492 8.49553 21.3271 9.58163C18.705 10.6677 16.3225 12.2597 14.3156 14.2665C12.3088 16.2734 10.7168 18.6559 9.63073 21.278C8.54462 23.9001 7.9856 26.7104 7.9856 29.5486V303.463C7.9856 306.301 8.54462 309.112 9.63073 311.734C10.7168 314.356 12.3088 316.738 14.3156 318.745C16.3225 320.752 18.705 322.344 21.3271 323.43C23.9492 324.516 26.7596 325.075 29.5977 325.075H136.045C138.883 325.075 141.693 324.516 144.315 323.43C146.937 322.344 149.32 320.752 151.327 318.745C153.334 316.738 154.926 314.356 156.012 311.734C157.098 309.112 157.657 306.301 157.657 303.463V29.5486C157.657 26.7104 157.098 23.9001 156.012 21.278C154.926 18.6559 153.334 16.2734 151.327 14.2665C149.32 12.2597 146.937 10.6677 144.315 9.58163C141.693 8.49553 138.883 7.93652 136.045 7.93652Z" fill="white"/>
<path d="M51.4597 63.6201H45.1041C44.8806 63.6201 44.6663 63.7089 44.5083 63.8669C44.3502 64.0249 44.2615 64.2393 44.2615 64.4627V67.2524C44.2615 67.4759 44.3502 67.6902 44.5083 67.8482C44.6663 68.0063 44.8806 68.095 45.1041 68.095H46.1573V72.2749H50.4065V68.095H51.4597C51.6832 68.095 51.8975 68.0063 52.0555 67.8482C52.2136 67.6902 52.3023 67.4759 52.3023 67.2524V64.4627C52.3023 64.2393 52.2136 64.0249 52.0555 63.8669C51.8975 63.7089 51.6832 63.6201 51.4597 63.6201Z" fill="#E6E6E6"/>
<path d="M57.8256 89.1511C53.9332 83.4555 51.9434 76.6741 52.1411 69.7784C52.1446 69.6192 52.093 69.4638 51.995 69.3385C51.8969 69.2131 51.7585 69.1255 51.6032 69.0907V67.8853H44.8908V69.0739H44.7983C44.6157 69.0741 44.4406 69.1469 44.3116 69.2763C44.1826 69.4056 44.1102 69.5809 44.1105 69.7635C44.1105 69.7803 44.1111 69.797 44.1124 69.8137C44.6412 77.1852 42.8555 83.7958 38.7554 89.6455C38.5194 89.9817 38.3989 90.3853 38.4118 90.7958L39.1458 113.499C39.1634 114.006 39.376 114.486 39.7391 114.839C40.1021 115.193 40.5877 115.392 41.0944 115.396H56.2768C56.7892 115.392 57.2798 115.188 57.644 114.827C58.0082 114.467 58.2172 113.978 58.2265 113.466L58.5094 91.4226C58.5177 90.6135 58.2792 89.8211 57.8256 89.1511Z" fill="#E6E6E6"/>
<path d="M55.4222 96.6929H42.2071C42.0115 96.6929 41.8182 96.7352 41.6404 96.8169C41.4627 96.8986 41.3047 97.0177 41.1774 97.1662C41.05 97.3147 40.9562 97.4889 40.9025 97.677C40.8488 97.8651 40.8364 98.0626 40.8661 98.2559L42.8631 111.236H54.3301L56.7557 98.2997C56.7925 98.1037 56.7856 97.9021 56.7355 97.7091C56.6855 97.5162 56.5936 97.3366 56.4663 97.1832C56.3389 97.0297 56.1794 96.9063 55.9989 96.8215C55.8185 96.7368 55.6216 96.6929 55.4222 96.6929Z" fill="white"/>
<path d="M122.21 131.632H115.854C115.631 131.632 115.417 131.721 115.259 131.879C115.1 132.037 115.012 132.251 115.012 132.474V135.264C115.012 135.488 115.1 135.702 115.259 135.86C115.417 136.018 115.631 136.107 115.854 136.107H116.908V140.287H121.157V136.107H122.21C122.433 136.107 122.648 136.018 122.806 135.86C122.964 135.702 123.053 135.488 123.053 135.264V132.474C123.053 132.251 122.964 132.037 122.806 131.879C122.648 131.721 122.433 131.632 122.21 131.632Z" fill="#E6E6E6"/>
<path d="M128.576 157.163C124.683 151.467 122.694 144.686 122.891 137.79C122.895 137.631 122.843 137.476 122.745 137.35C122.647 137.225 122.509 137.137 122.353 137.102V135.897H115.641V137.086H115.549C115.458 137.086 115.369 137.104 115.285 137.138C115.202 137.173 115.126 137.224 115.062 137.288C114.998 137.352 114.947 137.428 114.913 137.512C114.878 137.595 114.861 137.685 114.861 137.775C114.861 137.792 114.861 137.809 114.863 137.825C115.391 145.197 113.606 151.807 109.506 157.657C109.27 157.993 109.149 158.397 109.162 158.808L109.896 181.511C109.914 182.018 110.126 182.498 110.489 182.851C110.852 183.204 111.338 183.404 111.845 183.408H127.027C127.539 183.404 128.03 183.2 128.394 182.839C128.758 182.479 128.967 181.99 128.977 181.478L129.26 159.434C129.268 158.625 129.029 157.833 128.576 157.163Z" fill="#E6E6E6"/>
<path d="M126.173 164.704H112.958C112.762 164.704 112.569 164.746 112.391 164.828C112.213 164.91 112.055 165.029 111.928 165.177C111.8 165.326 111.707 165.5 111.653 165.688C111.599 165.876 111.587 166.074 111.617 166.267L113.614 179.248H125.081L127.506 166.311C127.543 166.115 127.536 165.913 127.486 165.72C127.436 165.527 127.344 165.348 127.217 165.194C127.089 165.041 126.93 164.918 126.749 164.833C126.569 164.748 126.372 164.704 126.173 164.704Z" fill="white"/>
<path d="M42.5246 227.78H39.5098C39.4038 227.78 39.3021 227.822 39.2272 227.897C39.1522 227.972 39.1101 228.074 39.1101 228.18V229.503C39.1101 229.609 39.1522 229.711 39.2272 229.786C39.3021 229.861 39.4038 229.903 39.5098 229.903H40.0094V231.886H42.025V229.903H42.5246C42.6306 229.903 42.7322 229.861 42.8072 229.786C42.8822 229.711 42.9243 229.609 42.9243 229.503V228.18C42.9243 228.074 42.8822 227.972 42.8072 227.897C42.7322 227.822 42.6306 227.78 42.5246 227.78Z" fill="#E6E6E6"/>
<path d="M45.5442 239.891C43.6979 237.189 42.754 233.973 42.8478 230.702C42.8495 230.626 42.825 230.552 42.7785 230.493C42.732 230.434 42.6663 230.392 42.5927 230.375V229.804H39.4087V230.368H39.3648C39.3219 230.368 39.2794 230.376 39.2398 230.393C39.2002 230.409 39.1642 230.433 39.1339 230.464C39.1036 230.494 39.0796 230.53 39.0632 230.57C39.0469 230.609 39.0385 230.652 39.0385 230.695C39.0385 230.703 39.0388 230.711 39.0394 230.718C39.3333 234.056 38.4328 237.39 36.4984 240.126C36.3864 240.285 36.3293 240.477 36.3354 240.671L36.6835 251.441C36.6919 251.681 36.7927 251.908 36.9649 252.076C37.1372 252.244 37.3675 252.338 37.6078 252.34H44.8095C45.0526 252.338 45.2853 252.242 45.4581 252.071C45.6309 251.9 45.73 251.668 45.7344 251.425L45.8686 240.969C45.8726 240.585 45.7594 240.209 45.5442 239.891Z" fill="#E6E6E6"/>
<path d="M44.5078 243.85H37.6362V247.285H44.5078V243.85Z" fill="white"/>
<path d="M56.5585 227.78H53.5437C53.4377 227.78 53.3361 227.822 53.2611 227.897C53.1862 227.972 53.144 228.074 53.144 228.18V229.503C53.144 229.609 53.1862 229.711 53.2611 229.786C53.3361 229.861 53.4377 229.903 53.5437 229.903H54.0433V231.886H56.0589V229.903H56.5585C56.6645 229.903 56.7662 229.861 56.8411 229.786C56.9161 229.711 56.9582 229.609 56.9582 229.503V228.18C56.9582 228.074 56.9161 227.972 56.8411 227.897C56.7662 227.822 56.6645 227.78 56.5585 227.78Z" fill="#E6E6E6"/>
<path d="M59.5779 239.891C57.7316 237.189 56.7877 233.973 56.8815 230.702C56.8832 230.626 56.8587 230.552 56.8122 230.493C56.7657 230.434 56.7 230.392 56.6264 230.375V229.804H53.4424V230.368H53.3985C53.3556 230.368 53.3131 230.376 53.2735 230.393C53.2339 230.409 53.1979 230.433 53.1676 230.464C53.1373 230.494 53.1133 230.53 53.0969 230.57C53.0806 230.609 53.0722 230.652 53.0722 230.695C53.0722 230.703 53.0725 230.711 53.0731 230.718C53.367 234.056 52.4665 237.39 50.5321 240.126C50.4201 240.285 50.363 240.477 50.3691 240.671L50.7172 251.441C50.7256 251.681 50.8264 251.908 50.9986 252.076C51.1709 252.244 51.4012 252.338 51.6415 252.34H58.8432C59.0863 252.338 59.319 252.242 59.4918 252.071C59.6646 251.9 59.7637 251.668 59.7681 251.425L59.9023 240.969C59.9063 240.585 59.7931 240.209 59.5779 239.891Z" fill="#E6E6E6"/>
<path d="M58.5415 243.85H51.6699V247.285H58.5415V243.85Z" fill="white"/>
<path d="M70.5922 227.78H67.5774C67.4714 227.78 67.3698 227.822 67.2948 227.897C67.2198 227.972 67.1777 228.074 67.1777 228.18V229.503C67.1777 229.609 67.2198 229.711 67.2948 229.786C67.3698 229.861 67.4714 229.903 67.5774 229.903H68.077V231.886H70.0926V229.903H70.5922C70.6982 229.903 70.7999 229.861 70.8748 229.786C70.9498 229.711 70.9919 229.609 70.9919 229.503V228.18C70.9919 228.074 70.9498 227.972 70.8748 227.897C70.7999 227.822 70.6982 227.78 70.5922 227.78Z" fill="#E6E6E6"/>
<path d="M73.6119 239.891C71.7655 237.189 70.8217 233.973 70.9155 230.702C70.9171 230.626 70.8926 230.552 70.8461 230.493C70.7996 230.434 70.734 230.392 70.6603 230.375V229.804H67.4763V230.368H67.4324C67.3895 230.368 67.3471 230.376 67.3074 230.393C67.2678 230.409 67.2318 230.433 67.2016 230.464C67.1713 230.494 67.1472 230.53 67.1309 230.57C67.1145 230.609 67.1061 230.652 67.1062 230.695C67.1062 230.703 67.1065 230.711 67.1071 230.718C67.4009 234.056 66.5004 237.39 64.566 240.126C64.4541 240.285 64.3969 240.477 64.403 240.671L64.7512 251.441C64.7595 251.681 64.8604 251.908 65.0326 252.076C65.2048 252.244 65.4351 252.338 65.6755 252.34H72.8772C73.1203 252.338 73.353 252.242 73.5257 252.071C73.6985 251.9 73.7976 251.668 73.802 251.425L73.9362 240.969C73.9402 240.585 73.827 240.209 73.6119 239.891Z" fill="#E6E6E6"/>
<path d="M72.5755 243.85H65.7039V247.285H72.5755V243.85Z" fill="white"/>
<path d="M111.169 201.469H104.813C104.703 201.469 104.593 201.491 104.491 201.533C104.389 201.576 104.296 201.638 104.218 201.716C104.139 201.794 104.077 201.887 104.035 201.989C103.993 202.092 103.971 202.201 103.971 202.312V205.102C103.971 205.325 104.059 205.539 104.218 205.697C104.376 205.855 104.59 205.944 104.813 205.944H105.867V210.124H110.116V205.944H111.169C111.392 205.944 111.607 205.855 111.765 205.697C111.923 205.539 112.012 205.325 112.012 205.102V202.312C112.012 202.201 111.99 202.092 111.947 201.989C111.905 201.887 111.843 201.794 111.765 201.716C111.687 201.638 111.594 201.576 111.491 201.533C111.389 201.491 111.28 201.469 111.169 201.469Z" fill="#E6E6E6"/>
<path d="M117.535 227C113.642 221.305 111.653 214.523 111.85 207.627C111.854 207.468 111.802 207.313 111.704 207.188C111.606 207.062 111.468 206.975 111.312 206.94V205.734H104.6V206.923H104.508C104.417 206.923 104.328 206.941 104.244 206.976C104.161 207.011 104.085 207.061 104.021 207.125C103.957 207.189 103.906 207.265 103.872 207.349C103.837 207.433 103.82 207.522 103.82 207.613C103.82 207.629 103.82 207.646 103.822 207.663C104.35 215.034 102.565 221.645 98.4646 227.495C98.2287 227.831 98.1081 228.234 98.1211 228.645L98.855 251.349C98.8727 251.855 99.0852 252.335 99.4483 252.688C99.8114 253.042 100.297 253.241 100.804 253.245H115.986C116.498 253.241 116.989 253.037 117.353 252.677C117.717 252.316 117.926 251.827 117.936 251.315L118.219 229.272C118.227 228.463 117.988 227.67 117.535 227Z" fill="#E6E6E6"/>
<path d="M115.131 234.542H101.916C101.721 234.542 101.527 234.584 101.35 234.665C101.172 234.747 101.014 234.866 100.887 235.015C100.759 235.163 100.665 235.338 100.612 235.526C100.558 235.714 100.546 235.911 100.575 236.105L102.572 249.085H114.039L116.465 236.148C116.502 235.952 116.495 235.751 116.445 235.558C116.395 235.365 116.303 235.185 116.175 235.032C116.048 234.878 115.889 234.755 115.708 234.67C115.528 234.585 115.331 234.542 115.131 234.542Z" fill="white"/>
<path d="M114.639 118.319H76.7529C79.4017 103.999 78.7923 86.7063 76.7529 68.1094H114.639C112.653 86.7063 112.06 103.999 114.639 118.319Z" fill="#E6E6E6"/>
<path d="M95.924 100.974C100.966 100.974 105.053 96.8867 105.053 91.8449C105.053 86.803 100.966 82.7158 95.924 82.7158C90.8821 82.7158 86.7949 86.803 86.7949 91.8449C86.7949 96.8867 90.8821 100.974 95.924 100.974Z" fill="white"/>
<path d="M79.9482 184.961H42.0625C44.7112 170.641 44.1019 153.348 42.0625 134.751H79.9482C77.963 153.348 77.3698 170.641 79.9482 184.961Z" fill="#E6E6E6"/>
<path d="M61.2336 167.616C66.2754 167.616 70.3626 163.529 70.3626 158.487C70.3626 153.445 66.2754 149.358 61.2336 149.358C56.1917 149.358 52.1045 153.445 52.1045 158.487C52.1045 163.529 56.1917 167.616 61.2336 167.616Z" fill="white"/>
<path d="M136.092 121.515H98.2063C100.855 107.194 100.246 89.9016 98.2063 71.3047H136.092C134.107 89.9016 133.514 107.194 136.092 121.515Z" fill="#E6E6E6"/>
<path d="M117.377 104.169C122.419 104.169 126.506 100.082 126.506 95.0402C126.506 89.9984 122.419 85.9111 117.377 85.9111C112.336 85.9111 108.248 89.9984 108.248 95.0402C108.248 100.082 112.336 104.169 117.377 104.169Z" fill="white"/>
<path d="M136.092 119.232H98.2063C100.855 104.912 100.246 87.6194 98.2063 69.0225H136.092C134.107 87.6194 133.514 104.912 136.092 119.232Z" fill="#E6E6E6"/>
<path d="M117.377 101.887C122.419 101.887 126.506 97.7998 126.506 92.758C126.506 87.7161 122.419 83.6289 117.377 83.6289C112.336 83.6289 108.248 87.7161 108.248 92.758C108.248 97.7998 112.336 101.887 117.377 101.887Z" fill="white"/>
<path d="M136.092 121.515H98.2063C100.855 107.194 100.246 89.9016 98.2063 71.3047H136.092C134.107 89.9016 133.514 107.194 136.092 121.515Z" fill="#E6E6E6"/>
<path d="M117.377 104.169C122.419 104.169 126.506 100.082 126.506 95.0402C126.506 89.9984 122.419 85.9111 117.377 85.9111C112.336 85.9111 108.248 89.9984 108.248 95.0402C108.248 100.082 112.336 104.169 117.377 104.169Z" fill="white"/>
<path d="M144.765 115.581H20.6091V129.274H144.765V115.581Z" fill="#E6E6E6"/>
<path d="M144.765 183.592H20.6091V197.286H144.765V183.592Z" fill="#E6E6E6"/>
<path d="M144.765 251.604H20.6091V265.298H144.765V251.604Z" fill="#E6E6E6"/>
<path d="M360.738 307.158L329.808 285.281C340.24 275.119 349.728 260.649 358.801 244.288L389.732 266.165C377.373 280.202 366.903 293.977 360.738 307.158Z" fill="#017552"/>
<path d="M360.747 283.866C365.789 283.866 369.876 279.779 369.876 274.737C369.876 269.695 365.789 265.608 360.747 265.608C355.705 265.608 351.618 269.695 351.618 274.737C351.618 279.779 355.705 283.866 360.747 283.866Z" fill="white"/>
<path d="M211.531 207.328H208.136C208.016 207.328 207.902 207.375 207.817 207.459C207.733 207.544 207.686 207.658 207.686 207.778V209.268C207.686 209.327 207.697 209.386 207.72 209.44C207.742 209.495 207.776 209.545 207.817 209.586C207.859 209.628 207.909 209.661 207.963 209.684C208.018 209.707 208.077 209.718 208.136 209.718H208.698V211.951H210.968V209.718H211.531C211.65 209.718 211.765 209.671 211.849 209.586C211.934 209.502 211.981 209.387 211.981 209.268V207.778C211.981 207.658 211.934 207.544 211.849 207.459C211.765 207.375 211.65 207.328 211.531 207.328Z" fill="#E6E6E6"/>
<path d="M214.932 220.966C212.852 217.924 211.789 214.301 211.895 210.617C211.897 210.532 211.869 210.449 211.817 210.382C211.764 210.315 211.691 210.269 211.608 210.25V209.606H208.022V210.241H207.972C207.924 210.241 207.876 210.251 207.832 210.269C207.787 210.288 207.746 210.315 207.712 210.349C207.678 210.383 207.651 210.424 207.633 210.469C207.614 210.513 207.605 210.561 207.605 210.609C207.605 210.618 207.605 210.627 207.606 210.636C207.937 214.395 206.923 218.15 204.744 221.231C204.618 221.41 204.554 221.626 204.561 221.845L204.953 233.974C204.962 234.244 205.076 234.501 205.27 234.689C205.464 234.878 205.723 234.985 205.994 234.987H214.104C214.378 234.985 214.64 234.876 214.835 234.683C215.029 234.491 215.141 234.23 215.146 233.956L215.297 222.18C215.301 221.748 215.174 221.324 214.932 220.966Z" fill="#017552"/>
<path opacity="0.2" d="M210.823 207.813C210.823 208.071 210.721 208.318 210.539 208.5C210.357 208.682 210.11 208.785 209.852 208.785C209.594 208.785 209.347 208.682 209.165 208.5C208.983 208.318 208.881 208.071 208.881 207.813" fill="black"/>
<path d="M213.352 223.304H206.505V227.868H213.352V223.304Z" fill="white"/>
<path d="M318.975 254.709H312.62C312.396 254.709 312.182 254.798 312.024 254.956C311.866 255.114 311.777 255.328 311.777 255.552V258.341C311.777 258.565 311.866 258.779 312.024 258.937C312.182 259.095 312.396 259.184 312.62 259.184H313.673V263.364H317.922V259.184H318.975C319.199 259.184 319.413 259.095 319.571 258.937C319.729 258.779 319.818 258.565 319.818 258.341V255.552C319.818 255.328 319.729 255.114 319.571 254.956C319.413 254.798 319.199 254.709 318.975 254.709Z" fill="#E6E6E6"/>
<path d="M325.341 280.24C321.449 274.545 319.459 267.763 319.657 260.868C319.66 260.709 319.609 260.553 319.511 260.428C319.413 260.302 319.274 260.215 319.119 260.18V258.975H312.406V260.163H312.314C312.224 260.163 312.134 260.181 312.05 260.216C311.967 260.251 311.891 260.302 311.827 260.366C311.763 260.43 311.713 260.506 311.678 260.589C311.644 260.673 311.626 260.762 311.626 260.853C311.626 260.87 311.627 260.886 311.628 260.903C312.157 268.275 310.371 274.885 306.271 280.735C306.035 281.071 305.915 281.475 305.927 281.885L306.661 304.589C306.679 305.095 306.892 305.575 307.255 305.929C307.618 306.282 308.103 306.482 308.61 306.486H323.792C324.305 306.481 324.795 306.277 325.16 305.917C325.524 305.556 325.733 305.068 325.742 304.555L326.025 282.512C326.033 281.703 325.795 280.91 325.341 280.24Z" fill="#017552"/>
<path opacity="0.2" d="M317.651 255.618C317.651 256.1 317.459 256.563 317.118 256.904C316.777 257.245 316.315 257.436 315.833 257.436C315.35 257.436 314.888 257.245 314.547 256.904C314.206 256.563 314.015 256.1 314.015 255.618" fill="black"/>
<path d="M322.938 287.782H309.723C309.527 287.782 309.334 287.824 309.156 287.906C308.979 287.987 308.821 288.107 308.693 288.255C308.566 288.404 308.472 288.578 308.418 288.766C308.365 288.954 308.352 289.151 308.382 289.345L310.379 302.325H321.846L324.272 289.389C324.308 289.193 324.301 288.991 324.251 288.798C324.201 288.605 324.109 288.425 323.982 288.272C323.855 288.119 323.695 287.995 323.515 287.91C323.334 287.826 323.137 287.782 322.938 287.782Z" fill="white"/>
<path d="M300.842 307.122H262.956C265.605 292.802 264.996 275.509 262.956 256.913H300.842C298.857 275.51 298.264 292.802 300.842 307.122Z" fill="#017552"/>
<path d="M282.127 289.777C287.169 289.777 291.256 285.69 291.256 280.648C291.256 275.606 287.169 271.519 282.127 271.519C277.086 271.519 272.998 275.606 272.998 280.648C272.998 285.69 277.086 289.777 282.127 289.777Z" fill="white"/>
<path d="M145.88 149.105L154.385 148.332L159.798 135.188L150.133 129.775L145.88 149.105Z" fill="#FFB8B8"/>
<path d="M223.934 185.189C224.217 184.483 224.328 183.721 224.258 182.964C224.189 182.208 223.94 181.478 223.533 180.837C223.126 180.195 222.573 179.659 221.918 179.273C221.264 178.887 220.527 178.662 219.768 178.617L206.563 177.83L204.619 184.295L218.213 188.029C219.349 188.34 220.56 188.223 221.615 187.7C222.67 187.176 223.496 186.282 223.934 185.189Z" fill="#FFB8B8"/>
<path d="M209.755 188.137L209.609 176.005L180.277 171.325L157.681 145.409C156.505 144.06 154.88 143.184 153.108 142.941C151.335 142.699 149.535 143.107 148.041 144.09C147.136 144.686 146.373 145.473 145.805 146.395C145.238 147.318 144.88 148.354 144.757 149.43C144.634 150.506 144.749 151.596 145.094 152.623C145.439 153.65 146.005 154.589 146.752 155.373L165.394 178.315L209.755 188.137Z" fill="#575A89"/>
<path d="M139.308 324.618H147.04L166.218 237.91L186.086 264.696L197.684 322.685H205.029L203.483 260.444L177.581 193.95H152.066C145.093 206.569 139.623 219.576 145.88 232.996L139.308 324.618Z" fill="#2F2E41"/>
<path d="M192.944 329.885C192.858 330.158 192.832 330.447 192.867 330.731C192.902 331.016 192.997 331.29 193.146 331.534C193.294 331.779 193.494 331.99 193.73 332.152C193.967 332.314 194.235 332.423 194.517 332.473L213.437 335.831C214.185 335.968 214.957 335.826 215.607 335.433C216.258 335.04 216.742 334.423 216.969 333.697C217.189 333.004 217.158 332.255 216.882 331.582C216.605 330.91 216.1 330.356 215.456 330.019C211.296 327.883 207.715 324.77 205.022 320.947C202.942 322.884 200.618 322.701 198.15 321.274L195.532 321.602L192.944 329.885Z" fill="#2F2E41"/>
<path d="M135.728 329.885C135.643 330.158 135.617 330.447 135.651 330.731C135.686 331.016 135.781 331.29 135.93 331.534C136.079 331.779 136.278 331.99 136.515 332.152C136.751 332.314 137.02 332.423 137.302 332.473L156.222 335.831C156.969 335.968 157.741 335.826 158.392 335.433C159.042 335.04 159.526 334.423 159.753 333.697C159.974 333.004 159.943 332.255 159.666 331.582C159.389 330.91 158.884 330.356 158.24 330.019C154.08 327.883 150.5 324.77 147.806 320.947C145.727 322.884 143.402 322.701 140.934 321.274L138.317 321.602L135.728 329.885Z" fill="#2F2E41"/>
<path d="M159.991 140.02C165.969 140.02 170.815 135.173 170.815 129.195C170.815 123.217 165.969 118.371 159.991 118.371C154.013 118.371 149.166 123.217 149.166 129.195C149.166 135.173 154.013 140.02 159.991 140.02Z" fill="#FFB8B8"/>
<path d="M150.326 196.849L178.547 196.076L170.259 169.991C175.41 161.734 170.226 153.486 162.89 145.239L157.091 141.373L147.813 140.6C143.796 144.898 141.598 150.584 141.679 156.467C141.863 169.064 144.094 182.777 150.326 196.849Z" fill="#575A89"/>
<path d="M215.166 214.407C215.703 213.87 216.105 213.213 216.339 212.49C216.572 211.766 216.631 210.998 216.509 210.248C216.388 209.498 216.09 208.788 215.64 208.175C215.19 207.563 214.601 207.066 213.921 206.726L202.09 200.808L197.759 205.987L208.789 214.767C209.71 215.501 210.87 215.87 212.046 215.803C213.222 215.737 214.333 215.24 215.166 214.407Z" fill="#FFB8B8"/>
<path d="M200.97 211.539L205.609 200.328L180.483 184.486L169.903 151.77C169.353 150.068 168.204 148.623 166.67 147.703C165.136 146.783 163.32 146.45 161.559 146.766C160.493 146.958 159.482 147.381 158.597 148.006C157.713 148.631 156.976 149.443 156.44 150.384C155.904 151.325 155.58 152.372 155.493 153.452C155.406 154.532 155.558 155.617 155.936 156.632L164.05 185.058L200.97 211.539Z" fill="#575A89"/>
<path d="M142.208 124.943C142.208 129.154 144.943 135.677 148.393 138.473C150.715 140.355 153.782 140.275 154.965 137.7C156.179 135.058 160.361 128.849 167.723 124.943C177.536 119.735 164.243 110.827 154.965 112.185C147.994 113.206 142.208 117.897 142.208 124.943Z" fill="#2F2E41"/>
<path d="M148.78 119.144C153.05 119.144 156.512 115.682 156.512 111.412C156.512 107.142 153.05 103.68 148.78 103.68C144.51 103.68 141.048 107.142 141.048 111.412C141.048 115.682 144.51 119.144 148.78 119.144Z" fill="#2F2E41"/>
<path d="M157.671 108.706C157.671 106.757 156.933 104.88 155.607 103.451C154.281 102.023 152.463 101.148 150.52 101.003C150.712 100.989 150.904 100.974 151.099 100.974C153.15 100.974 155.117 101.789 156.567 103.239C158.017 104.689 158.831 106.655 158.831 108.706C158.831 110.757 158.017 112.723 156.567 114.173C155.117 115.623 153.15 116.438 151.099 116.438C150.904 116.438 150.712 116.423 150.52 116.409C152.463 116.263 154.281 115.389 155.607 113.961C156.933 112.532 157.671 110.655 157.671 108.706Z" fill="#2F2E41"/>
<path d="M160.184 133.061C161.145 133.061 161.924 132.023 161.924 130.742C161.924 129.461 161.145 128.422 160.184 128.422C159.223 128.422 158.445 129.461 158.445 130.742C158.445 132.023 159.223 133.061 160.184 133.061Z" fill="#FFB8B8"/>
<path d="M379.252 310.438H258.891L233.404 189.951H211.652V184.545H237.786L263.273 305.032H379.252V310.438Z" fill="#3F3D56"/>
<path d="M276.53 332.45C282.928 332.45 288.115 327.263 288.115 320.865C288.115 314.467 282.928 309.28 276.53 309.28C270.131 309.28 264.944 314.467 264.944 320.865C264.944 327.263 270.131 332.45 276.53 332.45Z" fill="#3F3D56"/>
<path d="M363.033 332.45C369.431 332.45 374.618 327.263 374.618 320.865C374.618 314.467 369.431 309.28 363.033 309.28C356.634 309.28 351.448 314.467 351.448 320.865C351.448 327.263 356.634 332.45 363.033 332.45Z" fill="#3F3D56"/>
<path d="M377.058 307.893H259.953L239.291 205.785H396.447C397.249 205.785 398.042 205.959 398.77 206.294C399.498 206.63 400.146 207.119 400.667 207.728C401.188 208.338 401.571 209.053 401.789 209.824C402.008 210.596 402.057 211.406 401.932 212.198L382.542 303.203C382.342 304.512 381.678 305.706 380.671 306.567C379.664 307.427 378.382 307.898 377.058 307.893ZM261.225 306.348H377.058C378.013 306.352 378.939 306.012 379.665 305.391C380.392 304.77 380.871 303.908 381.015 302.963L400.406 211.958C400.496 211.386 400.461 210.802 400.303 210.245C400.146 209.688 399.869 209.172 399.493 208.732C399.117 208.292 398.65 207.939 398.124 207.697C397.598 207.455 397.026 207.329 396.447 207.329H241.166L261.225 306.348Z" fill="#3F3D56"/>
<path d="M282.719 307.565L269.188 206.682L270.711 206.431L284.243 307.314L282.719 307.565Z" fill="#3F3D56"/>
<path d="M357.958 306.791L356.432 306.544L369.568 206.433L371.094 206.68L357.958 306.791Z" fill="#3F3D56"/>
<path d="M322.11 206.557H320.566V307.44H322.11V206.557Z" fill="#3F3D56"/>
<path d="M247.182 233.589L247.178 235.134L396.704 235.496L396.707 233.951L247.182 233.589Z" fill="#3F3D56"/>
<path d="M386.156 281.307L254.794 282.205L254.805 283.749L386.166 282.851L386.156 281.307Z" fill="#3F3D56"/>
<path d="M213.969 191.11C218.661 191.11 222.465 189.035 222.465 186.475C222.465 183.916 218.661 181.841 213.969 181.841C209.277 181.841 205.473 183.916 205.473 186.475C205.473 189.035 209.277 191.11 213.969 191.11Z" fill="#3F3D56"/>
</g>
<defs>
<clipPath id="clip0_7_35">
<rect width="402" height="335.475" fill="white" transform="translate(0 0.407227)"/>
</clipPath>
</defs>
</svg>
